<svg xmlns="http://www.w3.org/2000/svg" viewBox="0 0 24 24" fill="none" shape-rendering="auto" width="512" height="512"><desc>"Bootstrap Icons" by "The Bootstrap Authors", licensed under "MIT". / Remix of the original. - Created with dicebear.com</desc><metadata xmlns:dc="http://purl.org/dc/elements/1.1/" xmlns:cc="http://creativecommons.org/ns#" xmlns:rdf="http://www.w3.org/1999/02/22-rdf-syntax-ns#"><rdf:RDF><cc:Work><dc:title>Bootstrap Icons</dc:title><dc:creator><cc:Agent rdf:about="https://getbootstrap.com/"><dc:title>The Bootstrap Authors</dc:title></cc:Agent></dc:creator><dc:source>https://github.com/twbs/icons</dc:source><cc:license rdf:resource="https://github.com/twbs/icons/blob/main/LICENSE.md" /></cc:Work></rdf:RDF></metadata><mask id="viewboxMask"><rect width="24" height="24" rx="0" ry="0" x="0" y="0" fill="#fff" /></mask><g mask="url(#viewboxMask)"><rect fill="#80deea" width="24" height="24" x="0" y="0" /><g transform="translate(4 4)"><g fill="#fff"><path d="M8 15A7 7 0 1 1 8 1a7 7 0 0 1 0 14Zm0 1A8 8 0 1 0 8-.001 8 8 0 0 0 8 16Z"/><path d="M10 8a2 2 0 1 1-4 0 2 2 0 0 1 4 0ZM8 4a4 4 0 0 0-4 4 .5.5 0 1 1-1 0 5 5 0 0 1 5-5 .5.5 0 1 1 0 1Zm4.5 3.5a.5.5 0 0 1 .5.5 5 5 0 0 1-5 5 .5.5 0 0 1 0-1 4 4 0 0 0 4-4 .5.5 0 0 1 .5-.5Z"/></g></g></g></svg>